<svg xmlns="http://www.w3.org/2000/svg" aria-hidden="true" viewBox="0 0 1440 810" preserveAspectRatio="xMinYMin slice" jsname="BUfzDd"><path fill="#efefee" d="M 592.66 0 c -15 64.092 -30.7 125.285 -46.598 183.777 C 634.056 325.56 748.348 550.932 819.642 809.5 h 419.672 C 1184.52 593.727 1083.12 290.064 902.637 0 H 592.66 Z" /><path fill="#f6f6f6" d="M 545.962 183.777 c -53.796 196.576 -111.592 361.156 -163.49 490.74 c 11.7 44.494 22.8 89.49 33.1 134.883 h 404.07 c -71.294 -258.468 -185.586 -483.84 -273.68 -625.623 Z" /><path fill="#f7f7f7" d="M 153.89 0 c 74.094 180.678 161.088 417.448 228.483 674.517 C 449.67 506.337 527.063 279.465 592.56 0 H 153.89 Z" /><path fill="#fbfbfc" d="M 153.89 0 H 0 v 809.5 h 415.57 C 345.477 500.938 240.884 211.874 153.89 0 Z" /><path fill="#ebebec" d="M 1144.22 501.538 c 52.596 -134.583 101.492 -290.964 134.09 -463.343 c 1.2 -6.1 2.3 -12.298 3.4 -18.497 c 0 -0.2 0.1 -0.4 0.1 -0.6 c 1.1 -6.3 2.3 -12.7 3.4 -19.098 H 902.536 c 105.293 169.28 183.688 343.158 241.684 501.638 v -0.1 Z" /><path fill="#e1e1e1" d="M 1285.31 0 c -2.2 12.798 -4.5 25.597 -6.9 38.195 C 1321.51 86.39 1379.6 158.98 1440 257.168 V 0 h -154.69 Z" /><path fill="#e7e7e7" d="M 1278.31 38.196 C 1245.81 209.874 1197.22 365.556 1144.82 499.838 L 1144.82 503.638 C 1185.82 615.924 1216.41 720.211 1239.11 809.6 L 1439.7 810 L 1439.7 256.768 C 1379.4 158.78 1321.41 86.288 1278.31 38.195 L 1278.31 38.196 Z" /></svg>