<?xml version="1.0" standalone="no"?><!DOCTYPE svg PUBLIC "-//W3C//DTD SVG 1.1//EN" "http://www.w3.org/Graphics/SVG/1.1/DTD/svg11.dtd"><svg t="1486459567264" class="icon" style="" viewBox="0 0 1024 1024" version="1.1" xmlns="http://www.w3.org/2000/svg" p-id="996" xmlns:xlink="http://www.w3.org/1999/xlink" width="200" height="200"><defs><style type="text/css"></style></defs><path d="M128 298.848l171.232 0 0-170.848-171.232 0 0 170.848zM128 596.608l171.232 0 0-169.184-171.232 0 0 169.184zM128 896l171.232 0 0-168.928-171.232 0 0 168.928zM426.368 298.848l171.232 0 0-170.848-171.232 0 0 170.848zM426.368 596.608l171.232 0 0-169.184-171.232 0 0 169.184zM426.368 896l171.232 0 0-168.928-171.232 0 0 168.928zM724.768 128l0 170.848 171.232 0 0-170.848-171.232 0zM724.768 596.608l171.232 0 0-169.184-171.232 0 0 169.184zM724.768 896l171.232 0 0-168.928-171.232 0 0 168.928z" p-id="997" fill="#ffffff"></path></svg>